<svg width="147" height="28" viewBox="0 0 147 28" fill="none" xmlns="http://www.w3.org/2000/svg">
<path d="M0.703125 2.74219C2.10938 2.85938 3.33984 2.92969 4.39453 2.95312C5.47266 2.97656 6.38672 2.98828 7.13672 2.98828C8.00391 2.98828 8.75391 2.96484 9.38672 2.91797C10.043 2.84766 10.8984 2.75391 11.9531 2.63672C12.8438 2.51953 13.9922 2.36719 15.3984 2.17969C16.8047 1.96875 18.5156 1.69922 20.5312 1.37109C20.2734 1.76953 20.0508 2.19141 19.8633 2.63672C19.6992 3.05859 19.5586 3.44531 19.4414 3.79688C19.3242 4.21875 19.2188 4.62891 19.125 5.02734C19.0547 5.47266 18.9727 6.02344 18.8789 6.67969C18.7852 7.24219 18.668 7.95703 18.5273 8.82422C18.4102 9.66797 18.2578 10.6758 18.0703 11.8477C17.3672 10.0195 16.6523 8.61328 15.9258 7.62891C15.2227 6.64453 14.5664 5.91797 13.957 5.44922C13.2539 4.91016 12.5859 4.60547 11.9531 4.53516C11.0391 4.53516 10.2891 4.71094 9.70312 5.0625C9.11719 5.41406 8.63672 5.87109 8.26172 6.43359C7.91016 6.97266 7.64062 7.57031 7.45312 8.22656C7.26562 8.85938 7.13672 9.48047 7.06641 10.0898C6.99609 10.6758 6.94922 11.2031 6.92578 11.6719C6.90234 12.1172 6.87891 12.4219 6.85547 12.5859C7.67578 12.5391 8.36719 12.4805 8.92969 12.4102C9.49219 12.3398 9.9375 12.2695 10.2656 12.1992C10.6641 12.1055 10.9805 12.0117 11.2148 11.918C11.5664 11.7305 11.918 11.5078 12.2695 11.25C12.5742 11.0156 12.8906 10.7344 13.2188 10.4062C13.5703 10.0781 13.875 9.67969 14.1328 9.21094C13.9922 10.0547 13.8633 10.7578 13.7461 11.3203C13.6523 11.8828 13.5703 12.3281 13.5 12.6562C13.4062 13.0547 13.3477 13.3594 13.3242 13.5703C13.2773 13.7812 13.2188 14.0742 13.1484 14.4492C13.0781 14.7773 12.9961 15.1992 12.9023 15.7148C12.8086 16.2305 12.7031 16.875 12.5859 17.6484C12.3047 17.1562 12.0117 16.7578 11.707 16.4531C11.4023 16.125 11.1211 15.8672 10.8633 15.6797C10.5586 15.4688 10.2656 15.3047 9.98438 15.1875C9.67969 15.0938 9.35156 15 9 14.9062C8.69531 14.8359 8.33203 14.7656 7.91016 14.6953C7.51172 14.6016 7.07812 14.5195 6.60938 14.4492C6.65625 15.7148 6.72656 16.8047 6.82031 17.7188C6.91406 18.6094 6.99609 19.3594 7.06641 19.9688C7.16016 20.6719 7.25391 21.2578 7.34766 21.7266C7.46484 22.1953 7.65234 22.6992 7.91016 23.2383C8.12109 23.707 8.41406 24.2461 8.78906 24.8555C9.1875 25.4414 9.69141 26.0742 10.3008 26.7539C9.83203 26.6367 9.33984 26.5547 8.82422 26.5078C8.30859 26.4609 7.85156 26.4258 7.45312 26.4023C6.96094 26.3789 6.49219 26.3789 6.04688 26.4023C5.57812 26.4258 5.0625 26.4727 4.5 26.543C4.03125 26.5898 3.49219 26.6602 2.88281 26.7539C2.27344 26.8477 1.62891 26.9531 0.949219 27.0703C1.34766 26.6719 1.67578 26.2734 1.93359 25.875C2.19141 25.4766 2.37891 25.125 2.49609 24.8203C2.63672 24.4688 2.73047 24.1289 2.77734 23.8008C2.80078 23.5195 2.8125 22.9102 2.8125 21.9727C2.8125 21.0117 2.80078 19.8984 2.77734 18.6328C2.75391 17.3438 2.71875 15.9844 2.67188 14.5547C2.625 13.125 2.57812 11.7891 2.53125 10.5469C2.48438 9.28125 2.42578 8.20312 2.35547 7.3125C2.30859 6.42187 2.25 5.88281 2.17969 5.69531C2.08594 5.46094 1.98047 5.19141 1.86328 4.88672C1.67578 4.39453 1.28906 3.67969 0.703125 2.74219ZM68.4492 1.93359C69.2695 2.05078 69.9844 2.14453 70.5938 2.21484C71.2031 2.28516 71.707 2.34375 72.1055 2.39062C72.5742 2.4375 72.9727 2.47266 73.3008 2.49609C73.6758 2.54297 74.1328 2.51953 74.6719 2.42578C75.2344 2.33203 75.832 2.23828 76.4648 2.14453C77.0977 2.02734 77.7539 1.93359 78.4336 1.86328C79.1133 1.79297 79.7695 1.79297 80.4023 1.86328C80.8242 1.91016 81.3633 2.00391 82.0195 2.14453C82.6758 2.28516 83.3672 2.50781 84.0938 2.8125C84.8438 3.11719 85.5938 3.51562 86.3438 4.00781C87.0938 4.5 87.7734 5.12109 88.3828 5.87109C88.9922 6.62109 89.4961 7.51172 89.8945 8.54297C90.293 9.57422 90.5156 10.7812 90.5625 12.1641C90.6328 14.2266 90.4453 16.1016 90 17.7891C89.5547 19.4766 88.8633 20.918 87.9258 22.1133C87.0117 23.3086 85.8516 24.2461 84.4453 24.9258C83.0391 25.6055 81.3984 25.9805 79.5234 26.0508C78.0938 26.168 76.6875 26.2734 75.3047 26.3672C74.7188 26.4141 74.0977 26.4492 73.4414 26.4727C72.8086 26.4961 72.1758 26.5195 71.543 26.543C70.9102 26.543 70.3008 26.5312 69.7148 26.5078C69.1289 26.4844 68.5898 26.4492 68.0977 26.4023C68.6367 26.1445 69.0703 25.8867 69.3984 25.6289C69.75 25.3711 70.0195 25.1484 70.207 24.9609C70.418 24.7266 70.5703 24.5156 70.6641 24.3281C70.7109 24.0703 70.7812 23.5664 70.875 22.8164C70.9453 22.1836 71.0391 21.2812 71.1562 20.1094C71.2734 18.9375 71.4141 17.3438 71.5781 15.3281L71.7891 12.832C71.9062 11.2852 71.9531 10.0195 71.9297 9.03516C71.9297 8.05078 71.9062 7.27734 71.8594 6.71484C71.7891 6.05859 71.6953 5.57812 71.5781 5.27344C71.4844 5.01562 71.3086 4.71094 71.0508 4.35938C70.8164 4.07812 70.4883 3.73828 70.0664 3.33984C69.668 2.91797 69.1289 2.44922 68.4492 1.93359ZM75.8672 14.8711C75.9141 16.957 76.0195 18.5625 76.1836 19.6875C76.3711 20.7891 76.5703 21.6094 76.7812 22.1484C77.0391 22.7578 77.3203 23.1211 77.625 23.2383C78.0703 23.2383 78.5742 23.0508 79.1367 22.6758C79.6992 22.2773 80.25 21.6797 80.7891 20.8828C81.3516 20.0859 81.8555 19.0898 82.3008 17.8945C82.7695 16.6992 83.1094 15.3047 83.3203 13.7109C83.5312 12.1172 83.4727 10.7109 83.1445 9.49219C82.8164 8.27344 82.3828 7.25391 81.8438 6.43359C81.3047 5.58984 80.7539 4.95703 80.1914 4.53516C79.6289 4.08984 79.207 3.86719 78.9258 3.86719C78.5977 3.86719 78.3047 3.96094 78.0469 4.14844C77.7891 4.3125 77.4258 4.69922 76.957 5.30859C76.7227 5.63672 76.5117 6.10547 76.3242 6.71484C76.1602 7.25391 76.0195 7.96875 75.9023 8.85938C75.7852 9.75 75.75 10.8984 75.7969 12.3047L75.8672 14.8711Z" fill="black"/>
<path d="M31.7461 0.492188C33.0117 0.539063 34.2891 0.773438 35.5781 1.19531C36.8906 1.59375 38.0977 2.25 39.1992 3.16406C40.3008 4.05469 41.2383 5.21484 42.0117 6.64453C42.7852 8.05078 43.2656 9.77344 43.4531 11.8125C43.6172 13.4766 43.4062 15.1289 42.8203 16.7695C42.2578 18.3867 41.4727 19.875 40.4648 21.2344C39.457 22.5938 38.2969 23.7539 36.9844 24.7148C35.6719 25.6523 34.3594 26.2734 33.0469 26.5781C32.25 26.7656 31.3711 26.7891 30.4102 26.6484C29.4727 26.4844 28.5117 26.1914 27.5273 25.7695C26.5664 25.3242 25.6172 24.7617 24.6797 24.082C23.7656 23.4023 22.9336 22.6289 22.1836 21.7617C21.4336 20.8711 20.8008 19.9102 20.2852 18.8789C19.793 17.8477 19.4883 16.7695 19.3711 15.6445C19.2539 14.707 19.2422 13.6758 19.3359 12.5508C19.4531 11.4023 19.6758 10.2656 20.0039 9.14062C20.3555 7.99219 20.8359 6.89062 21.4453 5.83594C22.0781 4.75781 22.875 3.82031 23.8359 3.02344C24.7969 2.20312 25.9219 1.57031 27.2109 1.125C28.5234 0.65625 30.0352 0.445312 31.7461 0.492188ZM25.4531 14.7305C25.125 17.2383 25.3594 19.2539 26.1562 20.7773C26.9766 22.3008 28.207 23.2266 29.8477 23.5547C30.6445 23.7188 31.4062 23.5547 32.1328 23.0625C32.8828 22.5469 33.5625 21.8086 34.1719 20.8477C34.7812 19.8867 35.3086 18.7617 35.7539 17.4727C36.1992 16.1836 36.5273 14.8359 36.7383 13.4297C36.9492 12.0234 36.9609 10.7578 36.7734 9.63281C36.6094 8.48438 36.3164 7.51172 35.8945 6.71484C35.4727 5.89453 34.957 5.26172 34.3477 4.81641C33.7617 4.37109 33.1523 4.125 32.5195 4.07812C31.418 4.00781 30.457 4.30078 29.6367 4.95703C28.8164 5.58984 28.125 6.42187 27.5625 7.45312C27 8.48438 26.543 9.64453 26.1914 10.9336C25.8633 12.2227 25.6172 13.4883 25.4531 14.7305ZM57.4102 0.492188C58.6758 0.539063 59.9531 0.773438 61.2422 1.19531C62.5547 1.59375 63.7617 2.25 64.8633 3.16406C65.9648 4.05469 66.9023 5.21484 67.6758 6.64453C68.4492 8.05078 68.9297 9.77344 69.1172 11.8125C69.2812 13.4766 69.0703 15.1289 68.4844 16.7695C67.9219 18.3867 67.1367 19.875 66.1289 21.2344C65.1211 22.5938 63.9609 23.7539 62.6484 24.7148C61.3359 25.6523 60.0234 26.2734 58.7109 26.5781C57.9141 26.7656 57.0352 26.7891 56.0742 26.6484C55.1367 26.4844 54.1758 26.1914 53.1914 25.7695C52.2305 25.3242 51.2812 24.7617 50.3438 24.082C49.4297 23.4023 48.5977 22.6289 47.8477 21.7617C47.0977 20.8711 46.4648 19.9102 45.9492 18.8789C45.457 17.8477 45.1523 16.7695 45.0352 15.6445C44.918 14.707 44.9062 13.6758 45 12.5508C45.1172 11.4023 45.3398 10.2656 45.668 9.14062C46.0195 7.99219 46.5 6.89062 47.1094 5.83594C47.7422 4.75781 48.5391 3.82031 49.5 3.02344C50.4609 2.20312 51.5859 1.57031 52.875 1.125C54.1875 0.65625 55.6992 0.445312 57.4102 0.492188ZM51.1172 14.7305C50.7891 17.2383 51.0234 19.2539 51.8203 20.7773C52.6406 22.3008 53.8711 23.2266 55.5117 23.5547C56.3086 23.7188 57.0703 23.5547 57.7969 23.0625C58.5469 22.5469 59.2266 21.8086 59.8359 20.8477C60.4453 19.8867 60.9727 18.7617 61.418 17.4727C61.8633 16.1836 62.1914 14.8359 62.4023 13.4297C62.6133 12.0234 62.625 10.7578 62.4375 9.63281C62.2734 8.48438 61.9805 7.51172 61.5586 6.71484C61.1367 5.89453 60.6211 5.26172 60.0117 4.81641C59.4258 4.37109 58.8164 4.125 58.1836 4.07812C57.082 4.00781 56.1211 4.30078 55.3008 4.95703C54.4805 5.58984 53.7891 6.42187 53.2266 7.45312C52.6641 8.48438 52.207 9.64453 51.8555 10.9336C51.5273 12.2227 51.2812 13.4883 51.1172 14.7305ZM91.3008 2.77734C92.0977 2.87109 92.7656 2.94141 93.3047 2.98828C93.8672 3.01172 94.3242 3.04687 94.6758 3.09375C95.0977 3.14063 95.4258 3.16406 95.6602 3.16406C95.918 3.1875 96.3047 3.17578 96.8203 3.12891C97.2656 3.08203 97.8633 3.02344 98.6133 2.95312C99.3867 2.88281 100.371 2.77734 101.566 2.63672C101.027 3.10547 100.594 3.5625 100.266 4.00781C99.9609 4.42969 99.7266 4.80469 99.5625 5.13281C99.3516 5.53125 99.2227 5.90625 99.1758 6.25781C99.082 6.82031 99 7.59375 98.9297 8.57812C98.8828 9.53906 98.8359 10.5938 98.7891 11.7422C98.7422 12.8906 98.7188 14.0742 98.7188 15.293C98.7188 16.5117 98.7305 17.6719 98.7539 18.7734C98.8008 19.8516 98.8711 20.8125 98.9648 21.6562C99.082 22.5 99.2227 23.1094 99.3867 23.4844C99.6211 23.9062 99.8672 24.3281 100.125 24.75C100.359 25.1016 100.641 25.4648 100.969 25.8398C101.297 26.2148 101.672 26.5195 102.094 26.7539C100.711 26.6836 99.6094 26.6484 98.7891 26.6484H97.5234C97.1484 26.6484 96.668 26.6719 96.082 26.7188C95.5898 26.7656 94.9688 26.8125 94.2188 26.8594C93.4688 26.9062 92.5664 26.9766 91.5117 27.0703C92.0508 26.4844 92.4727 25.9219 92.7773 25.3828C93.082 24.8438 93.3281 24.375 93.5156 23.9766C93.7266 23.5078 93.8672 23.0625 93.9375 22.6406C94.0312 22.0312 94.1016 21.2812 94.1484 20.3906C94.2188 19.4766 94.2656 18.5039 94.2891 17.4727C94.3125 16.418 94.3125 15.3516 94.2891 14.2734C94.2891 13.1719 94.2656 12.1172 94.2188 11.1094C94.1719 10.1016 94.1016 9.1875 94.0078 8.36719C93.9375 7.54687 93.8438 6.89062 93.7266 6.39844C93.6562 6.09375 93.5156 5.75391 93.3047 5.37891C93.1172 5.05078 92.8594 4.67578 92.5312 4.25391C92.2266 3.80859 91.8164 3.31641 91.3008 2.77734ZM100.828 2.98828C102.469 3.03516 103.828 3.07031 104.906 3.09375C106.008 3.09375 106.898 3.09375 107.578 3.09375H109.441H119.918C119.965 3.5625 120 4.01953 120.023 4.46484C120.07 4.88672 120.094 5.26172 120.094 5.58984C120.094 5.98828 120.082 6.35156 120.059 6.67969C120.035 7.00781 120 7.35938 119.953 7.73438C119.906 8.0625 119.859 8.41406 119.812 8.78906C119.766 9.16406 119.684 9.55078 119.566 9.94922C119.238 8.68359 118.793 7.72266 118.23 7.06641C117.691 6.41016 117.141 5.92969 116.578 5.625C115.922 5.27344 115.23 5.08594 114.504 5.0625C113.543 5.10938 112.793 5.19141 112.254 5.30859C111.715 5.42578 111.293 5.58984 110.988 5.80078C110.684 6.01172 110.449 6.25781 110.285 6.53906C110.145 6.79688 109.992 7.08984 109.828 7.41797C109.688 7.69922 109.559 8.13281 109.441 8.71875C109.324 9.21094 109.207 9.87891 109.09 10.7227C108.996 11.5664 108.891 12.6562 108.773 13.9922C109.406 13.8047 109.91 13.6289 110.285 13.4648C110.684 13.3008 111 13.1602 111.234 13.043C111.492 12.9023 111.68 12.7734 111.797 12.6562C111.891 12.5156 112.031 12.2578 112.219 11.8828C112.359 11.5547 112.547 11.1094 112.781 10.5469C113.039 9.98438 113.344 9.21094 113.695 8.22656C113.742 9.30469 113.766 10.207 113.766 10.9336C113.766 11.6367 113.777 12.2109 113.801 12.6562C113.801 13.1719 113.812 13.582 113.836 13.8867V15.2227C113.836 15.7148 113.836 16.3828 113.836 17.2266C113.859 18.0469 113.895 19.0898 113.941 20.3555C113.66 19.4883 113.402 18.8086 113.168 18.3164C112.957 17.8008 112.77 17.4141 112.605 17.1562C112.418 16.8516 112.254 16.6406 112.113 16.5234C111.949 16.4766 111.727 16.4297 111.445 16.3828C111.188 16.3594 110.859 16.3477 110.461 16.3477C110.086 16.3477 109.605 16.4062 109.02 16.5234C108.949 17.8125 108.938 18.8555 108.984 19.6523C109.055 20.4258 109.148 21.0234 109.266 21.4453C109.383 21.9375 109.523 22.2891 109.688 22.5C109.898 22.7109 110.32 22.8867 110.953 23.0273C111.586 23.1445 112.301 23.1914 113.098 23.168C113.918 23.1211 114.75 22.9805 115.594 22.7461C116.438 22.5117 117.188 22.125 117.844 21.5859C118.336 21.1406 118.863 20.5781 119.426 19.8984C119.895 19.3125 120.41 18.5742 120.973 17.6836C121.559 16.793 122.133 15.7148 122.695 14.4492C122.602 15.5039 122.531 16.3828 122.484 17.0859C122.461 17.7656 122.426 18.3164 122.379 18.7383C122.332 19.2305 122.297 19.6055 122.273 19.8633C122.273 20.1445 122.238 20.543 122.168 21.0586C122.121 21.5039 122.039 22.1133 121.922 22.8867C121.828 23.6367 121.699 24.5977 121.535 25.7695C120.434 25.793 119.391 25.8164 118.406 25.8398C117.422 25.8398 116.555 25.8516 115.805 25.875C114.914 25.8984 114.094 25.9219 113.344 25.9453C112.57 25.9453 111.715 25.9805 110.777 26.0508C109.957 26.0977 108.984 26.168 107.859 26.2617C106.758 26.3555 105.539 26.4844 104.203 26.6484C104.32 25.0547 104.402 23.5547 104.449 22.1484C104.52 20.7188 104.566 19.4648 104.59 18.3867C104.613 17.1211 104.613 15.9492 104.59 14.8711C104.707 12.1758 104.66 9.99609 104.449 8.33203C104.238 6.66797 103.992 5.60156 103.711 5.13281C103.57 4.96875 103.371 4.76953 103.113 4.53516C102.902 4.34766 102.609 4.125 102.234 3.86719C101.859 3.60937 101.391 3.31641 100.828 2.98828ZM146.566 1.26562C146.238 2.01563 145.945 2.67188 145.688 3.23438C145.43 3.79688 145.207 4.27734 145.02 4.67578C144.809 5.12109 144.633 5.51953 144.492 5.87109C144.375 6.12891 144.223 6.48047 144.035 6.92578C143.848 7.32422 143.613 7.85156 143.332 8.50781C143.074 9.14062 142.734 9.96094 142.312 10.9688C142.102 10.1016 141.844 9.33984 141.539 8.68359C141.234 8.02734 140.906 7.45312 140.555 6.96094C140.203 6.46875 139.828 6.07031 139.43 5.76562C139.055 5.4375 138.68 5.16797 138.305 4.95703C137.438 4.48828 136.523 4.23047 135.562 4.18359C134.297 4.25391 133.301 4.46484 132.574 4.81641C131.871 5.14453 131.355 5.53125 131.027 5.97656C130.699 6.39844 130.523 6.84375 130.5 7.3125C130.477 7.75781 130.535 8.13281 130.676 8.4375C130.793 8.71875 131.203 9.04688 131.906 9.42188C132.633 9.79688 133.5 10.2305 134.508 10.7227C135.539 11.1914 136.641 11.7305 137.812 12.3398C138.984 12.9258 140.062 13.582 141.047 14.3086C142.055 15.0117 142.898 15.7852 143.578 16.6289C144.281 17.4492 144.668 18.3281 144.738 19.2656C144.809 20.4609 144.797 21.5391 144.703 22.5C144.609 23.4609 144.281 24.2812 143.719 24.9609C143.156 25.6406 142.277 26.1797 141.082 26.5781C139.91 26.9766 138.281 27.2227 136.195 27.3164C134.039 27.4102 132.27 27.293 130.887 26.9648C129.504 26.6367 128.379 26.1914 127.512 25.6289C126.668 25.0664 126.035 24.4453 125.613 23.7656C125.215 23.0859 124.922 22.4414 124.734 21.832C124.547 21.1992 124.418 20.6602 124.348 20.2148C124.277 19.7461 124.16 19.4648 123.996 19.3711C123.809 19.2539 123.621 19.1484 123.434 19.0547C123.27 18.9609 123.094 18.8789 122.906 18.8086C122.719 18.7148 122.531 18.6328 122.344 18.5625L132.574 16.9102C131.988 17.3789 131.531 17.8125 131.203 18.2109C130.898 18.6094 130.664 18.9609 130.5 19.2656C130.312 19.6172 130.184 19.9453 130.113 20.25C130.066 20.5781 130.172 20.9883 130.43 21.4805C130.688 21.9727 131.039 22.4531 131.484 22.9219C131.953 23.3672 132.492 23.7422 133.102 24.0469C133.711 24.3516 134.344 24.4805 135 24.4336C135.82 24.3633 136.488 24.1641 137.004 23.8359C137.52 23.4844 137.906 23.0508 138.164 22.5352C138.445 22.0195 138.609 21.457 138.656 20.8477C138.703 20.2383 138.645 19.6406 138.48 19.0547C138.34 18.4453 138.105 17.8828 137.777 17.3672C137.449 16.8281 137.062 16.3828 136.617 16.0312C136.219 15.75 135.598 15.4805 134.754 15.2227C133.934 14.9648 133.008 14.6836 131.977 14.3789C130.969 14.0742 129.926 13.7227 128.848 13.3242C127.793 12.9258 126.832 12.4336 125.965 11.8477C125.121 11.2617 124.441 10.5703 123.926 9.77344C123.434 8.97656 123.246 8.01562 123.363 6.89062C123.457 5.92969 123.762 5.13281 124.277 4.5C124.816 3.84375 125.484 3.32812 126.281 2.95312C127.102 2.55469 128.004 2.26172 128.988 2.07422C129.996 1.88672 131.016 1.78125 132.047 1.75781C133.102 1.71094 134.133 1.72266 135.141 1.79297C136.172 1.86328 137.098 1.94531 137.918 2.03906C138.738 2.13281 139.43 2.22656 139.992 2.32031C140.578 2.39062 140.941 2.4375 141.082 2.46094C141.691 2.50781 142.301 2.49609 142.91 2.42578C143.449 2.37891 144.035 2.27344 144.668 2.10938C145.324 1.92187 145.957 1.64062 146.566 1.26562Z" fill="#F37113"/>
</svg>
